<?xml version="1.0" encoding="UTF-8" standalone="no"?>
<svg xmlns="http://www.w3.org/2000/svg" xmlns:xlink="http://www.w3.org/1999/xlink"
    contentScriptType="application/ecmascript" contentStyleType="text/css" height="597px" preserveAspectRatio="none"
    style="width:403px;height:597px;" version="1.1" viewBox="0 0 403 597" width="403px" zoomAndPan="magnify">
    <defs>
        <filter height="300%" id="f8oaxmh4lhng1" width="300%" x="-1" y="-1">
            <feGaussianBlur result="blurOut" stdDeviation="2.0" />
            <feColorMatrix in="blurOut" result="blurOut2" type="matrix"
                values="0 0 0 0 0 0 0 0 0 0 0 0 0 0 0 0 0 0 .4 0" />
            <feOffset dx="4.0" dy="4.0" in="blurOut2" result="blurOut3" />
            <feBlend in="SourceGraphic" in2="blurOut3" mode="normal" />
        </filter>
    </defs>
    <g>
        <!--MD5=[9a0d0b2043ba29872edf531b4811a2d9]
entity rust code-->
        <rect fill="#FEFECE" filter="url(#f8oaxmh4lhng1)" height="46.2969" style="stroke:#A80036;stroke-width:1.5;"
            width="107" x="20" y="7" />
        <rect fill="#FEFECE" height="10" style="stroke:#A80036;stroke-width:1.5;" width="15" x="107" y="12" />
        <rect fill="#FEFECE" height="2" style="stroke:#A80036;stroke-width:1.5;" width="4" x="105" y="14" />
        <rect fill="#FEFECE" height="2" style="stroke:#A80036;stroke-width:1.5;" width="4" x="105" y="18" /><text
            fill="#000000" font-family="sans-serif" font-size="14" lengthAdjust="spacing" textLength="67" x="35"
            y="39.9951">rust code</text>
        <!--MD5=[22abdf7fcd0f50f76268d0c651cb5bd9]
entity idbr-->
        <rect fill="#FEFECE" filter="url(#f8oaxmh4lhng1)" height="46.2969" style="stroke:#A80036;stroke-width:1.5;"
            width="69" x="39" y="113" />
        <rect fill="#FEFECE" height="10" style="stroke:#A80036;stroke-width:1.5;" width="15" x="88" y="118" />
        <rect fill="#FEFECE" height="2" style="stroke:#A80036;stroke-width:1.5;" width="4" x="86" y="120" />
        <rect fill="#FEFECE" height="2" style="stroke:#A80036;stroke-width:1.5;" width="4" x="86" y="124" /><text
            fill="#000000" font-family="sans-serif" font-size="14" lengthAdjust="spacing" textLength="29" x="54"
            y="145.9951">idbr</text>
        <!--MD5=[14b6e26aac0c44067ffd41e878d9dd46]
entity idbr_imports-->
        <rect fill="#FEFECE" filter="url(#f8oaxmh4lhng1)" height="46.2969" style="stroke:#A80036;stroke-width:1.5;"
            width="133" x="7" y="219" />
        <rect fill="#FEFECE" height="10" style="stroke:#A80036;stroke-width:1.5;" width="15" x="120" y="224" />
        <rect fill="#FEFECE" height="2" style="stroke:#A80036;stroke-width:1.5;" width="4" x="118" y="226" />
        <rect fill="#FEFECE" height="2" style="stroke:#A80036;stroke-width:1.5;" width="4" x="118" y="230" /><text
            fill="#000000" font-family="sans-serif" font-size="14" lengthAdjust="spacing" textLength="93" x="22"
            y="251.9951">idbr_imports</text>
        <!--MD5=[76e60f44ce3fdca71b099fb4fabcbf2b]
entity idb_exports-->
        <rect fill="#FEFECE" filter="url(#f8oaxmh4lhng1)" height="46.2969" style="stroke:#A80036;stroke-width:1.5;"
            width="126" x="10.5" y="325" />
        <rect fill="#FEFECE" height="10" style="stroke:#A80036;stroke-width:1.5;" width="15" x="116.5" y="330" />
        <rect fill="#FEFECE" height="2" style="stroke:#A80036;stroke-width:1.5;" width="4" x="114.5" y="332" />
        <rect fill="#FEFECE" height="2" style="stroke:#A80036;stroke-width:1.5;" width="4" x="114.5" y="336" /><text
            fill="#000000" font-family="sans-serif" font-size="14" lengthAdjust="spacing" textLength="86" x="25.5"
            y="357.9951">idb_exports</text>
        <!--MD5=[8d7f1913418dd65e76fb7746a6ef6cb1]
entity idb-->
        <rect fill="#FEFECE" filter="url(#f8oaxmh4lhng1)" height="46.2969" style="stroke:#A80036;stroke-width:1.5;"
            width="63" x="42" y="431" />
        <rect fill="#FEFECE" height="10" style="stroke:#A80036;stroke-width:1.5;" width="15" x="85" y="436" />
        <rect fill="#FEFECE" height="2" style="stroke:#A80036;stroke-width:1.5;" width="4" x="83" y="438" />
        <rect fill="#FEFECE" height="2" style="stroke:#A80036;stroke-width:1.5;" width="4" x="83" y="442" /><text
            fill="#000000" font-family="sans-serif" font-size="14" lengthAdjust="spacing" textLength="23" x="57"
            y="463.9951">idb</text>
        <!--MD5=[27d12f09b01b72d367cfcdd2941726a5]
entity indexeddb-->
        <rect fill="#FEFECE" filter="url(#f8oaxmh4lhng1)" height="46.2969" style="stroke:#A80036;stroke-width:1.5;"
            width="116" x="15.5" y="537" />
        <rect fill="#FEFECE" height="10" style="stroke:#A80036;stroke-width:1.5;" width="15" x="111.5" y="542" />
        <rect fill="#FEFECE" height="2" style="stroke:#A80036;stroke-width:1.5;" width="4" x="109.5" y="544" />
        <rect fill="#FEFECE" height="2" style="stroke:#A80036;stroke-width:1.5;" width="4" x="109.5" y="548" /><text
            fill="#000000" font-family="sans-serif" font-size="14" lengthAdjust="spacing" textLength="76" x="30.5"
            y="569.9951">indexeddb</text>
        <path
            d="M162,17.5 L162,26 L127.289,30 L162,34 L162,42.6328 A0,0 0 0 0 162,42.6328 L393,42.6328 A0,0 0 0 0 393,42.6328 L393,27.5 L383,17.5 L162,17.5 A0,0 0 0 0 162,17.5 "
            fill="#FBFB77" filter="url(#f8oaxmh4lhng1)" style="stroke:#A80036;stroke-width:1.0;" />
        <path d="M383,17.5 L383,27.5 L393,27.5 L383,17.5 " fill="#FBFB77" style="stroke:#A80036;stroke-width:1.0;" />
        <text fill="#000000" font-family="sans-serif" font-size="13" lengthAdjust="spacing" textLength="210" x="168"
            y="34.5669">with async/await without jsValue</text>
        <path
            d="M143,123.5 L143,132 L108.09,136 L143,140 L143,148.6328 A0,0 0 0 0 143,148.6328 L326,148.6328 A0,0 0 0 0 326,148.6328 L326,133.5 L316,123.5 L143,123.5 A0,0 0 0 0 143,123.5 "
            fill="#FBFB77" filter="url(#f8oaxmh4lhng1)" style="stroke:#A80036;stroke-width:1.0;" />
        <path d="M316,123.5 L316,133.5 L326,133.5 L316,123.5 " fill="#FBFB77"
            style="stroke:#A80036;stroke-width:1.0;" /><text fill="#000000" font-family="sans-serif" font-size="13"
            lengthAdjust="spacing" textLength="162" x="149" y="140.5669">rust library for indexeddb</text>
        <path
            d="M140,434 L140,450 L105.1055,454 L140,458 L140,474.2656 A0,0 0 0 0 140,474.2656 L379,474.2656 A0,0 0 0 0 379,474.2656 L379,444 L369,434 L140,434 A0,0 0 0 0 140,434 "
            fill="#FBFB77" filter="url(#f8oaxmh4lhng1)" style="stroke:#A80036;stroke-width:1.0;" />
        <path d="M369,434 L369,444 L379,444 L369,434 " fill="#FBFB77" style="stroke:#A80036;stroke-width:1.0;" /><text
            fill="#000000" font-family="sans-serif" font-size="13" lengthAdjust="spacing" textLength="218" x="146"
            y="451.0669">javascript library with async/await</text><text fill="#000000" font-family="sans-serif"
            font-size="13" lengthAdjust="spacing" textLength="119" x="146" y="466.1997">from jakearchibald</text>
        <path
            d="M166.5,540 L166.5,556 L131.719,560 L166.5,564 L166.5,580.2656 A0,0 0 0 0 166.5,580.2656 L394.5,580.2656 A0,0 0 0 0 394.5,580.2656 L394.5,550 L384.5,540 L166.5,540 A0,0 0 0 0 166.5,540 "
            fill="#FBFB77" filter="url(#f8oaxmh4lhng1)" style="stroke:#A80036;stroke-width:1.0;" />
        <path d="M384.5,540 L384.5,550 L394.5,550 L384.5,540 " fill="#FBFB77"
            style="stroke:#A80036;stroke-width:1.0;" /><text fill="#000000" font-family="sans-serif" font-size="13"
            lengthAdjust="spacing" textLength="207" x="172.5" y="557.0669">supported by all major browsers</text><text
            fill="#000000" font-family="sans-serif" font-size="13" lengthAdjust="spacing" textLength="197" x="172.5"
            y="572.1997">but no support for async/await</text>
        <!--MD5=[910b4c9a291a9a0e8e34b317a42ca8f1]
link rust code to idbr-->
        <path d="M73.5,53.056 C73.5,69.05 73.5,90.778 73.5,107.842 " fill="none" id="rust code-to-idbr"
            style="stroke:#A80036;stroke-width:1.0;stroke-dasharray:7.0,7.0;" />
        <polygon fill="#A80036" points="73.5,112.976,77.5,103.976,73.5,107.976,69.5,103.976,73.5,112.976"
            style="stroke:#A80036;stroke-width:1.0;" />
        <!--MD5=[546e10041535d6f94df37102f406b32e]
link idbr to idbr_imports-->
        <path d="M73.5,159.056 C73.5,175.05 73.5,196.778 73.5,213.842 " fill="none" id="idbr-to-idbr_imports"
            style="stroke:#A80036;stroke-width:1.0;stroke-dasharray:7.0,7.0;" />
        <polygon fill="#A80036" points="73.5,218.976,77.5,209.976,73.5,213.976,69.5,209.976,73.5,218.976"
            style="stroke:#A80036;stroke-width:1.0;" />
        <!--MD5=[ca3e6089a215fd74b60636a84cfba2f2]
link idbr_imports to idb_exports-->
        <path d="M73.5,265.056 C73.5,281.05 73.5,302.778 73.5,319.842 " fill="none" id="idbr_imports-to-idb_exports"
            style="stroke:#A80036;stroke-width:1.0;stroke-dasharray:7.0,7.0;" />
        <polygon fill="#A80036" points="73.5,324.976,77.5,315.976,73.5,319.976,69.5,315.976,73.5,324.976"
            style="stroke:#A80036;stroke-width:1.0;" />
        <!--MD5=[a952e4be1a6d8ffb5aefc3a620812792]
link idb_exports to idb-->
        <path d="M73.5,371.056 C73.5,387.05 73.5,408.778 73.5,425.842 " fill="none" id="idb_exports-to-idb"
            style="stroke:#A80036;stroke-width:1.0;stroke-dasharray:7.0,7.0;" />
        <polygon fill="#A80036" points="73.5,430.976,77.5,421.976,73.5,425.976,69.5,421.976,73.5,430.976"
            style="stroke:#A80036;stroke-width:1.0;" />
        <!--MD5=[f969f2a99a2a1dcdaadcf277a03472c1]
link idb to indexeddb-->
        <path d="M73.5,477.056 C73.5,493.0503 73.5,514.7785 73.5,531.8418 " fill="none" id="idb-to-indexeddb"
            style="stroke:#A80036;stroke-width:1.0;stroke-dasharray:7.0,7.0;" />
        <polygon fill="#A80036" points="73.5,536.9761,77.5,527.9761,73.5,531.9761,69.5,527.9761,73.5,536.9761"
            style="stroke:#A80036;stroke-width:1.0;" />
        <!--MD5=[d5b9f1e748326e9fea0e9a8c28c3c07a]
@startuml
[rust code] ..> [idbr]
[idbr] ..> [idbr_imports]
[idbr_imports] ..> [idb_exports]
[idb_exports] ..> [idb]
[idb] ..> [indexeddb]

note right of (rust code): with async/await without jsValue
note right of (idbr): rust library for indexeddb
note right of (idb): javascript library with async/await\nfrom jakearchibald
note right of (indexeddb): supported by all major browsers\nbut no support for async/await
@enduml

PlantUML version 1.2021.2beta9(Unknown compile time)
(GPL source distribution)
Java Runtime: Java(TM) SE Runtime Environment
JVM: Java HotSpot(TM) 64-Bit Server VM
Default Encoding: UTF-8
Language: en
Country: US
-->
    </g>
</svg>